<svg width="122" height="56" viewBox="0 0 122 56" fill="none" xmlns="http://www.w3.org/2000/svg">
<path d="M35.9484 14.2884C38.1426 13.6035 39.0569 10.3617 39.0934 8.58093C38.9106 8.62659 25.7819 12.0967 25.7819 12.0967C25.7819 12.0967 38.9837 7.53077 39.0934 7.48511C36.5701 8.21566 5.37581 17.028 5.37581 17.028C2.92561 17.7129 0.914254 19.9958 0.292562 23.055C0.109711 23.8312 0 24.6988 0 25.6576L12.507 21.6852C12.507 21.6852 7.16774 36.6159 7.93571 47.2546C7.93571 47.2546 8.15514 42.5973 10.4225 34.1047C9.76422 38.9902 9.21567 44.0584 9.14253 47.9395C9.10596 49.8572 9.47166 51.7292 10.2396 53.373L11.0442 55.0624C12.2876 44.4237 14.5915 30.7715 18.7239 19.6762L35.9484 14.2884Z" fill="url(#paint0_linear_166_53)"/>
<path d="M62.1327 16.343C59.7191 17.2106 58.0003 20.1785 57.598 20.8634C57.7808 20.1328 59.1339 17.0736 61.4379 15.9778C60.743 15.6582 60.0116 15.5212 59.2071 15.7495C55.6963 16.7083 50.0645 30.2236 57.598 35.5201C60.3773 35.0178 66.7771 29.4017 63.9612 18.2608C63.8881 18.0325 63.1566 17.0736 62.1327 16.343ZM61.2184 20.3154C63.8881 26.0229 58.366 32.05 58.2928 31.9586C56.7203 28.2602 57.6711 24.9727 58.8779 22.781H58.8414C58.9511 22.5984 59.0608 22.4614 59.1339 22.2788C59.4631 21.7309 59.7922 21.2743 60.0848 20.909C61.2916 19.3109 62.0595 19.037 62.0595 19.037C62.0595 19.037 61.6207 19.5849 61.2184 20.3154Z" fill="url(#paint1_linear_166_53)"/>
<path d="M82.1007 12.2793C82.1007 12.2793 81.5522 11.5945 80.8208 10.8639C80.1625 12.5077 79.3945 15.2472 79.1385 18.3521C79.1385 18.3521 79.0288 13.9231 80.2356 10.316C79.102 9.35713 77.7123 8.58092 76.7249 9.53977C73.1776 13.0099 69.996 26.4338 70.764 30.0409C71.1297 31.8217 71.9708 32.7348 73.397 33.8307C73.0679 30.8171 74.8964 19.7219 77.7123 14.2427C77.054 17.3476 76.7615 23.3746 79.3945 28.8081C80.1625 29.9496 82.0276 29.9496 82.4664 29.8583C79.5408 21.0916 82.1007 12.2793 82.1007 12.2793Z" fill="url(#paint2_linear_166_53)"/>
<path d="M120.683 11.0466C120.646 10.8639 120.427 10.8639 120.39 11.0466C119.951 13.1013 119.037 14.2427 118.452 14.608C117.245 12.5077 116.843 3.05614 116.843 2.91916C116.806 2.32558 115.855 1.32107 114.612 0.636178C112.418 1.68635 110.882 4.3346 110.516 4.97384C110.699 4.28894 111.869 1.54936 113.917 0.316555C113.186 0.0425976 112.381 -0.0943812 111.613 0.0882572C110.077 0.407874 106.932 6.48059 106.749 12.2794C104.811 17.9868 102.873 19.8132 101.044 20.2698C101.191 20.8177 101.41 21.1373 101.41 21.1373C100.496 20.4524 100.02 18.1695 100.02 18.1695C99.4353 15.3842 100.203 12.7816 101.081 10.8639C101.081 10.8183 101.118 10.8183 101.118 10.7726C101.447 10.042 101.812 9.44847 102.142 8.94622C103.275 7.11983 103.97 6.7089 103.97 6.7089C103.97 6.7089 103.421 7.57644 102.946 8.67227C102.946 9.40282 102.946 10.4073 102.946 11.2292C102.909 12.325 103.604 13.2382 104.482 13.3296C104.519 13.3296 104.555 13.3296 104.592 13.3296C104.957 12.4164 105.799 8.17 105.799 6.89153C105.799 6.4806 105.652 6.06966 105.396 5.79571C104.994 5.38477 104.445 4.83685 103.677 4.42592C101.447 5.43043 99.8376 8.17001 99.5085 8.80924C99.6913 8.12435 100.898 5.33912 102.983 4.10631C102.251 3.83235 101.374 3.69536 100.386 3.96932C98.5211 4.42592 96.4366 10.8639 96.144 12.3707C94.3887 17.7585 92.3407 23.3747 88.7203 24.2879C88.8666 24.8358 89.086 25.1554 89.086 25.1554C87.9523 24.1052 87.7329 22.1875 87.7329 22.1875C87.6963 22.0505 87.6963 21.8679 87.6598 21.6853C88.7203 21.6396 90.2197 19.9959 91.2802 18.8087C94.3155 15.3842 93.9132 10.2703 93.8767 9.95073C93.8401 9.67677 92.9624 8.71792 91.719 8.03302C89.5248 8.94622 87.8792 11.5032 87.5135 12.0967C87.6963 11.4118 88.9763 8.8549 90.9876 7.66775C90.2197 7.34814 89.342 7.21115 88.4277 7.39379C85.685 7.98737 78.9195 22.7354 87.8426 27.8036C87.8426 27.8036 92.6333 28.2602 96.1074 18.6261C96.6194 20.7264 97.8262 22.5071 99.9839 23.603C103.421 23.329 105.652 19.9502 107.188 16.2517C107.7 17.9868 109.053 20.0415 110.809 20.909C112.527 20.0415 114.319 18.3521 115.965 14.6993L116.002 14.7906C116.258 15.6125 116.952 17.2106 117.757 18.4434C117.903 18.6717 118.159 18.7174 118.342 18.5804C119.951 17.3476 121.743 14.745 120.683 11.0466ZM88.9763 14.6537C89.0494 14.471 89.1226 14.3341 89.2323 14.1514C90.0002 12.6447 90.7682 11.7315 90.7682 11.7315C91.4996 10.7726 91.9385 10.4987 91.9385 10.4987C91.9385 10.4987 91.2802 11.5488 90.8048 12.7816C90.7316 16.1148 88.7934 19.8132 87.6232 21.0004C87.4769 18.5347 88.2083 16.3431 88.9763 14.6537ZM113.734 5.0195C114.319 6.20665 114.502 7.66774 114.319 9.08319C113.698 13.4208 112.052 15.8865 111.357 16.7997C111.467 17.6672 111.869 18.2608 111.869 18.2608C111.54 18.0325 111.284 17.6215 111.065 17.1649C111.028 17.1193 111.028 17.0736 111.028 17.028C110.662 16.1604 110.48 15.2929 110.48 15.2929C109.675 11.8228 110.699 8.8549 111.759 6.9372C112.601 5.43043 113.442 4.51724 113.442 4.51724C114.393 3.42141 114.941 3.23877 114.941 3.23877C114.941 3.23877 114.283 4.01499 113.734 5.0195Z" fill="url(#paint3_linear_166_53)"/>
<path d="M42.1657 24.2422C42.1657 24.2422 41.6537 23.3746 40.8857 22.5528C40.2275 24.1965 39.4595 26.8904 39.2401 29.9953C39.2401 29.9953 39.1304 25.612 40.3372 22.0049C39.5327 21.32 38.5453 20.8634 37.6676 21.5483C35.8391 22.9637 33.6449 28.9451 32.2918 33.0545C32.8038 29.8126 33.3523 26.8448 33.7911 25.8859C33.2792 24.2422 32.1455 22.9181 30.6827 22.6898C30.6827 22.6898 30.6827 22.7354 30.6461 22.8267C28.0131 37.3008 24.1366 40.8166 22.3081 40.9536C22.4544 41.5472 22.7104 41.9124 22.7104 41.9124C22.4178 41.7298 22.1984 41.3645 22.0156 40.9536V40.9079C21.6864 40.1317 21.467 39.1729 21.3573 38.351C21.3573 38.3053 21.3573 38.2597 21.3207 38.214C21.2476 37.8487 21.211 37.4835 21.211 37.1182C21.211 36.9812 21.211 36.9355 21.211 36.9355C22.1253 36.9355 23.7344 36.7986 24.7218 35.6571C27.6108 32.4609 27.5377 27.2557 27.5011 26.9817C27.4645 26.7534 26.8063 25.7946 25.7823 25.064C23.2955 25.7489 21.4304 28.6712 21.0282 29.3104C21.2476 28.5798 22.7104 25.5663 25.0875 24.6074C24.3926 24.2422 23.6247 24.0595 22.8201 24.1965C20.4065 24.6531 13.7507 38.7163 21.211 44.3781C21.211 44.3781 25.6726 45.2913 29.3662 35.0179C29.2199 36.7986 29.0736 38.7163 28.9639 40.7709C28.9639 40.7709 29.9879 43.0539 30.9387 43.4192C30.9387 43.4192 35.2539 30.1323 37.9601 25.8403C37.0093 28.6255 36.1682 34.059 38.0698 38.9902C38.6915 40.0404 40.4469 40.0404 40.8857 39.9491C38.8378 32.187 42.1657 24.2422 42.1657 24.2422ZM24.5389 28.6255C24.7218 32.187 22.3447 35.0178 21.1013 36.2506C21.1745 31.2281 24.5389 28.6255 24.5389 28.6255Z" fill="url(#paint4_linear_166_53)"/>
<path d="M52.8433 20.8634C52.8433 20.8634 52.3314 20.2698 51.6 19.6306C50.9417 21.2743 50.1371 24.0139 49.8812 27.21C49.8812 27.21 49.7714 22.7354 50.9783 19.1283C49.8446 18.3064 48.4549 17.6215 47.5041 18.4434C43.9202 21.4569 41.47 33.1001 42.1649 36.2506C42.5306 37.8031 43.3351 38.5793 44.7613 39.5381C44.6516 38.5793 44.4322 36.342 45.0173 34.4242L43.9934 34.6982C44.7979 31.2281 46.151 28.1689 46.2607 28.1689L45.2002 28.5798C46.4436 25.612 48.4549 22.5071 48.4549 22.5071C48.4549 22.5071 47.9429 25.9316 49.04 28.4885L47.9795 28.0776C47.9795 28.0776 48.1258 31.5021 49.6983 33.3284L48.6743 33.4654C49.7349 36.7986 52.5873 36.1593 53.0262 36.068C50.2103 28.5798 52.8433 20.8634 52.8433 20.8634Z" fill="url(#paint5_linear_166_53)"/>
<defs>
<linearGradient id="paint0_linear_166_53" x1="20.4499" y1="20.9721" x2="28.6921" y2="46.4973" gradientUnits="userSpaceOnUse">
<stop stop-color="#FF9700"/>
<stop offset="0.9977" stop-color="#FF6800"/>
<stop offset="1" stop-color="#FF6802"/>
</linearGradient>
<linearGradient id="paint1_linear_166_53" x1="55.9955" y1="9.49439" x2="64.2377" y2="35.0197" gradientUnits="userSpaceOnUse">
<stop stop-color="#FF9700"/>
<stop offset="0.9977" stop-color="#FF6800"/>
<stop offset="1" stop-color="#FF6802"/>
</linearGradient>
<linearGradient id="paint2_linear_166_53" x1="72.8853" y1="4.04089" x2="81.1275" y2="29.5662" gradientUnits="userSpaceOnUse">
<stop stop-color="#FF9700"/>
<stop offset="0.9977" stop-color="#FF6800"/>
<stop offset="1" stop-color="#FF6802"/>
</linearGradient>
<linearGradient id="paint3_linear_166_53" x1="97.9091" y1="-4.03914" x2="106.151" y2="21.4861" gradientUnits="userSpaceOnUse">
<stop stop-color="#FF9700"/>
<stop offset="0.9977" stop-color="#FF6800"/>
<stop offset="1" stop-color="#FF6802"/>
</linearGradient>
<linearGradient id="paint4_linear_166_53" x1="27.3571" y1="18.7419" x2="35.5993" y2="44.2672" gradientUnits="userSpaceOnUse">
<stop stop-color="#FF9700"/>
<stop offset="0.9977" stop-color="#FF6800"/>
<stop offset="1" stop-color="#FF6802"/>
</linearGradient>
<linearGradient id="paint5_linear_166_53" x1="44.3454" y1="13.2561" x2="52.5876" y2="38.7814" gradientUnits="userSpaceOnUse">
<stop stop-color="#FF9700"/>
<stop offset="0.9977" stop-color="#FF6800"/>
<stop offset="1" stop-color="#FF6802"/>
</linearGradient>
</defs>
</svg>
